Coordinates
version=1
nRows=15
nColumns=23
inDegrees=yes

Units are S.I. units (second, meters, Newtons, ...)
If the header above contains a line with 'inDegrees', this indicates whether rotational values are in degrees (yes) or radians (no).

endheader
time	pelvis_tilt	pelvis_list	pelvis_rotation	pelvis_tx	pelvis_ty	pelvis_tz	hip_flexion_r	hip_adduction_r	hip_rotation_r	knee_angle_r	knee_angle_r_beta	ankle_angle_r	subtalar_angle_r	mtp_angle_r	hip_flexion_l	hip_adduction_l	hip_rotation_l	knee_angle_l	knee_angle_l_beta	ankle_angle_l	subtalar_angle_l	mtp_angle_l
      0.00000000	     -7.75314519	     -2.41602456	     -4.07298211	      2.29223455	      0.99148091	      1.00568282	     35.69884168	      5.78514660	     -1.70245810	     47.15596937	      0.82302693	      9.40107717	     -6.81935517	      0.00000000	    -12.47358487	     -1.20818486	    -11.99246075	     20.37488518	      0.35560883	    -14.79733053	      1.85734614	      0.00000000
      0.00666667	     -8.09973776	     -2.19400833	     -4.53144017	      2.29271163	      0.99173355	      1.00763593	     35.57302179	      6.05576424	     -1.26029577	     43.79481107	      0.76436365	     10.01893283	     -5.15664569	      0.00000000	    -11.88599630	     -1.26086662	    -13.41204547	     22.92186063	      0.40006194	    -15.71325812	      0.60644770	      0.00000000
      0.01333333	     -8.36883159	     -2.13863193	     -4.79106979	      2.29342537	      0.99181245	      1.00943419	     35.20874054	      6.32224200	     -1.16794767	     40.29298315	      0.70324522	     10.81954722	     -3.01156772	      0.00000000	    -11.36596300	     -1.71886730	    -15.19417411	     25.65580635	      0.44777829	    -16.16695363	      0.54211959	      0.00000000
      0.02000000	     -8.64509357	     -2.01691706	     -5.09949523	      2.29408032	      0.99160502	      1.01136769	     34.75087123	      6.71099171	     -0.56363298	     36.73804643	      0.64119987	     11.50198541	     -1.47048969	      0.00000000	    -10.95372776	     -1.97895178	    -16.40457634	     28.10546217	      0.49053285	    -16.79225276	     -0.38275903	      0.00000000
      0.02666667	     -8.93999662	     -1.81257541	     -5.46003025	      2.29472327	      0.99104933	      1.01342279	     34.25016196	      7.10736965	      0.37285185	     33.28283966	      0.58089514	     12.30294406	      0.01415625	      0.00000000	    -10.55790291	     -2.09458778	    -17.36503283	     30.44392927	      0.53134680	    -17.23261135	     -1.37928889	      0.00000000
      0.03333333	     -8.49053848	     -2.22679892	     -5.52861623	      2.29577777	      0.99124935	      1.01510862	     32.59213754	      7.92315075	      1.25310009	     29.46994718	      0.51434761	     12.59860531	      0.55939904	      0.00000000	    -10.97354423	     -3.02644777	    -18.60752122	     32.97795904	      0.57557397	    -17.27054209	     -1.48517458	      0.00000000
      0.04000000	     -8.64999381	     -2.03331910	     -5.82634535	      2.29625792	      0.98995987	      1.01700459	     31.90496748	      8.23083380	      2.38597475	     26.46682343	      0.46193321	     13.30023716	      1.70051164	      0.00000000	    -10.60563811	     -3.15264958	    -19.21580766	     35.51117982	      0.61978701	    -17.32257313	     -2.56797221	      0.00000000
      0.04666667	     -7.98084496	     -2.48425349	     -5.86932981	      2.29728474	      0.98973125	      1.01845048	     29.85936265	      9.02631536	      3.82501459	     22.94955210	      0.40054525	     13.25938566	      1.33512649	      0.00000000	    -11.20408152	     -4.00017257	    -19.92945177	     38.03528148	      0.66384089	    -17.09167595	     -3.02778463	      0.00000000
      0.05333333	     -7.63941976	     -2.60919638	     -6.07706129	      2.29784654	      0.98841060	      1.01999721	     28.43342127	      9.48563750	      5.21342553	     20.20279077	      0.35260522	     13.38971987	      1.33645733	      0.00000000	    -11.30417573	     -4.44673681	    -20.41028254	     40.69858889	      0.71032438	    -16.85021982	     -3.99458070	      0.00000000
      0.06000000	     -7.20055782	     -2.74433246	     -6.35867250	      2.29820932	      0.98672362	      1.02149982	     27.01659302	      9.88803112	      6.49881230	     17.98361954	      0.31387337	     13.46783718	      1.44128702	      0.00000000	    -11.42551995	     -4.85368563	    -20.81551194	     43.47223804	      0.75873369	    -16.51618036	     -5.05208777	      0.00000000
      0.06666667	     -6.73715126	     -2.91918645	     -6.67595040	      2.29842478	      0.98462007	      1.02292047	     25.70383124	     10.23753364	      7.39026739	     16.31220019	      0.28470160	     13.45118415	      1.73964471	      0.00000000	    -11.48553738	     -5.28107071	    -21.15053678	     46.36413396	      0.80920679	    -16.15876270	     -6.25557617	      0.00000000
      0.07333333	     -6.38628186	     -3.06255835	     -7.10395412	      2.29825837	      0.98183567	      1.02440942	     24.76227622	     10.54923913	      7.92911763	     15.39179827	      0.26863756	     13.37080248	      2.27616971	      0.00000000	    -11.30796462	     -5.68175691	    -21.49359091	     49.43403006	      0.86278659	    -15.84614363	     -7.60551194	      0.00000000
      0.08000000	     -5.71550068	     -3.46454198	     -7.50044172	      2.29815139	      0.97915202	      1.02571596	     23.42056797	     11.04189706	      8.35299654	     14.68317750	      0.25626979	     12.89911182	      2.36865501	      0.00000000	    -11.45496867	     -6.30127578	    -21.80475871	     52.52661066	      0.91676230	    -15.53326746	     -9.08490956	      0.00000000
      0.08666667	     -5.23497277	     -3.83209879	     -8.08500919	      2.29757981	      0.97567625	      1.02723899	     22.57360323	     11.56675685	      8.51821279	     14.79187021	      0.25816684	     12.35469714	      2.52233184	      0.00000000	    -11.30206152	     -6.89951594	    -22.21719033	     55.79055385	      0.97372886	    -15.25732620	    -10.62700087	      0.00000000
      0.09333333	     -4.67369250	     -4.34420869	     -8.65861593	      2.29687816	      0.97193946	      1.02859910	     21.71967810	     12.19337060	      8.46610991	     15.32341187	      0.26744399	     11.50982136	      2.37433095	      0.00000000	    -11.19244333	     -7.64969737	    -22.61989133	     59.11166437	      1.03169317	    -15.05460716	    -12.27242544	      0.00000000
